<?xml version="1.0" encoding="UTF-8"?>
<svg width="600" height="400" viewBox="0 0 600 400" fill="none" xmlns="http://www.w3.org/2000/svg">
  <!-- Background Elements -->
  <rect x="50" y="50" width="500" height="300" rx="20" fill="#F5F5F5"/>
  
  <!-- Document Icons -->
  <rect x="100" y="100" width="120" height="160" rx="8" fill="#1976d2" opacity="0.1"/>
  <rect x="110" y="120" width="100" height="10" rx="2" fill="#1976d2"/>
  <rect x="110" y="140" width="80" height="10" rx="2" fill="#1976d2"/>
  
  <rect x="240" y="100" width="120" height="160" rx="8" fill="#1976d2" opacity="0.1"/>
  <rect x="250" y="120" width="100" height="10" rx="2" fill="#1976d2"/>
  <rect x="250" y="140" width="80" height="10" rx="2" fill="#1976d2"/>
  
  <rect x="380" y="100" width="120" height="160" rx="8" fill="#1976d2" opacity="0.1"/>
  <rect x="390" y="120" width="100" height="10" rx="2" fill="#1976d2"/>
  <rect x="390" y="140" width="80" height="10" rx="2" fill="#1976d2"/>
  
  <!-- Connection Lines -->
  <path d="M220 180 H240" stroke="#1976d2" stroke-width="2"/>
  <path d="M360 180 H380" stroke="#1976d2" stroke-width="2"/>
  
  <!-- AI Elements -->
  <circle cx="300" cy="300" r="30" fill="#1976d2" opacity="0.2"/>
  <path d="M285 300 L300 285 L315 300 L300 315 Z" fill="#1976d2"/>
</svg> 