<?xml version="1.0" encoding="UTF-8"?>
<svg width="800" height="600" viewBox="0 0 800 600" fill="none" xmlns="http://www.w3.org/2000/svg">
  <!-- Background -->
  <rect width="800" height="600" rx="8" fill="#F3F4F6"/>
  
  <!-- Header -->
  <rect y="0" width="800" height="60" rx="8" fill="#FFFFFF"/>
  <rect x="20" y="20" width="120" height="20" rx="4" fill="#E5E7EB"/>
  <rect x="660" y="20" width="100" height="20" rx="4" fill="#E5E7EB"/>
  
  <!-- Sidebar -->
  <rect x="0" y="60" width="200" height="540" fill="#FFFFFF"/>
  <rect x="20" y="80" width="160" height="20" rx="4" fill="#E5E7EB"/>
  <rect x="20" y="120" width="160" height="20" rx="4" fill="#E5E7EB"/>
  <rect x="20" y="160" width="160" height="20" rx="4" fill="#E5E7EB"/>
  
  <!-- Main Content -->
  <rect x="220" y="80" width="560" height="100" rx="8" fill="#FFFFFF"/>
  <rect x="240" y="100" width="200" height="20" rx="4" fill="#E5E7EB"/>
  <rect x="240" y="140" width="300" height="20" rx="4" fill="#E5E7EB"/>
  
  <!-- Cards -->
  <rect x="220" y="200" width="270" height="160" rx="8" fill="#FFFFFF"/>
  <rect x="240" y="220" width="150" height="20" rx="4" fill="#E5E7EB"/>
  <rect x="240" y="260" width="230" height="80" rx="4" fill="#E5E7EB"/>
  
  <rect x="510" y="200" width="270" height="160" rx="8" fill="#FFFFFF"/>
  <rect x="530" y="220" width="150" height="20" rx="4" fill="#E5E7EB"/>
  <rect x="530" y="260" width="230" height="80" rx="4" fill="#E5E7EB"/>
  
  <rect x="220" y="380" width="270" height="160" rx="8" fill="#FFFFFF"/>
  <rect x="240" y="400" width="150" height="20" rx="4" fill="#E5E7EB"/>
  <rect x="240" y="440" width="230" height="80" rx="4" fill="#E5E7EB"/>
  
  <rect x="510" y="380" width="270" height="160" rx="8" fill="#FFFFFF"/>
  <rect x="530" y="400" width="150" height="20" rx="4" fill="#E5E7EB"/>
  <rect x="530" y="440" width="230" height="80" rx="4" fill="#E5E7EB"/>
</svg> 